<svg width="176" height="32" viewBox="0 0 176 32" fill="none" xmlns="http://www.w3.org/2000/svg">
<g clip-path="url(#clip0_19_439)">
<path opacity="0.1" fill-rule="evenodd" clip-rule="evenodd" d="M0 16C0 7.16344 7.16344 0 16 0C24.8366 0 32 7.16344 32 16C32 24.8366 24.8366 32 16 32C7.16344 32 0 24.8366 0 16Z" fill="white"/>
<path fill-rule="evenodd" clip-rule="evenodd" d="M16.0009 7.46667C13.6834 7.46667 13.3925 7.47681 12.4823 7.51823C11.5739 7.55983 10.9538 7.70366 10.4112 7.91468C9.84993 8.13264 9.37384 8.4242 8.89952 8.89869C8.42485 9.37301 8.13329 9.8491 7.91462 10.4102C7.70307 10.9529 7.55906 11.5732 7.51818 12.4813C7.47746 13.3915 7.4668 13.6826 7.4668 16.0001C7.4668 18.3176 7.47711 18.6076 7.51835 19.5178C7.56013 20.4263 7.70395 21.0464 7.9148 21.589C8.13294 22.1502 8.4245 22.6263 8.89899 23.1006C9.37313 23.5753 9.84922 23.8676 10.4101 24.0855C10.9531 24.2965 11.5733 24.4404 12.4816 24.482C13.3918 24.5234 13.6825 24.5335 15.9999 24.5335C18.3176 24.5335 18.6075 24.5234 19.5178 24.482C20.4262 24.4404 21.047 24.2965 21.59 24.0855C22.151 23.8676 22.6264 23.5753 23.1006 23.1006C23.5752 22.6263 23.8668 22.1502 24.0855 21.5891C24.2952 21.0464 24.4392 20.4261 24.4819 19.518C24.5228 18.6078 24.5335 18.3176 24.5335 16.0001C24.5335 13.6826 24.5228 13.3917 24.4819 12.4815C24.4392 11.573 24.2952 10.9529 24.0855 10.4103C23.8668 9.8491 23.5752 9.37301 23.1006 8.89869C22.6259 8.42402 22.1512 8.13246 21.5894 7.91468C21.0454 7.70366 20.425 7.55983 19.5165 7.51823C18.6063 7.47681 18.3165 7.46667 15.9983 7.46667H16.0009ZM15.2354 9.00444C15.4626 9.00409 15.7161 9.00444 16.0009 9.00444C18.2793 9.00444 18.5494 9.01262 19.4491 9.05351C20.2811 9.09156 20.7327 9.23058 21.0335 9.34738C21.4317 9.50205 21.7156 9.68694 22.0141 9.98561C22.3128 10.2843 22.4977 10.5687 22.6527 10.967C22.7695 11.2674 22.9087 11.719 22.9466 12.551C22.9875 13.4505 22.9963 13.7208 22.9963 15.9981C22.9963 18.2755 22.9875 18.5457 22.9466 19.4453C22.9085 20.2773 22.7695 20.7288 22.6527 21.0293C22.498 21.4275 22.3128 21.7111 22.0141 22.0096C21.7154 22.3082 21.4319 22.4931 21.0335 22.6478C20.733 22.7651 20.2811 22.9038 19.4491 22.9418C18.5495 22.9827 18.2793 22.9916 16.0009 22.9916C13.7223 22.9916 13.4522 22.9827 12.5527 22.9418C11.7207 22.9034 11.2691 22.7644 10.9681 22.6476C10.5699 22.4929 10.2855 22.3081 9.98679 22.0094C9.68812 21.7107 9.50323 21.427 9.3482 21.0286C9.2314 20.7281 9.0922 20.2766 9.05433 19.4446C9.01344 18.545 9.00527 18.2748 9.00527 15.996C9.00527 13.7172 9.01344 13.4484 9.05433 12.5488C9.09238 11.7168 9.2314 11.2653 9.3482 10.9645C9.50287 10.5662 9.68812 10.2818 9.98679 9.98312C10.2855 9.68445 10.5699 9.49956 10.9681 9.34454C11.2689 9.2272 11.7207 9.08853 12.5527 9.05031C13.3399 9.01476 13.645 9.00409 15.2354 9.00231V9.00444ZM20.556 10.4214C19.9906 10.4214 19.532 10.8795 19.532 11.445C19.532 12.0103 19.9906 12.469 20.556 12.469C21.1213 12.469 21.58 12.0103 21.58 11.445C21.58 10.8797 21.1213 10.4214 20.556 10.4214ZM16.0009 11.6178C13.5808 11.6178 11.6187 13.58 11.6187 16.0001C11.6187 18.4202 13.5808 20.3815 16.0009 20.3815C18.4211 20.3815 20.3825 18.4202 20.3825 16.0001C20.3825 13.58 18.4211 11.6178 16.0009 11.6178ZM16.0009 13.1556C17.5718 13.1556 18.8454 14.429 18.8454 16.0001C18.8454 17.5709 17.5718 18.8445 16.0009 18.8445C14.4299 18.8445 13.1564 17.5709 13.1564 16.0001C13.1564 14.429 14.4299 13.1556 16.0009 13.1556Z" fill="white"/>
<path opacity="0.1" fill-rule="evenodd" clip-rule="evenodd" d="M48 16C48 7.16344 55.1634 0 64 0C72.8366 0 80 7.16344 80 16C80 24.8366 72.8366 32 64 32C55.1634 32 48 24.8366 48 16Z" fill="white"/>
<path fill-rule="evenodd" clip-rule="evenodd" d="M72.5335 15.9882C72.5335 16.5653 72.4747 17.1416 72.3593 17.7033C72.2468 18.2517 72.0801 18.7901 71.8618 19.3048C71.6485 19.8104 71.3839 20.2976 71.0747 20.752C70.7701 21.2035 70.4192 21.627 70.0338 22.0131C69.6475 22.3976 69.2225 22.7475 68.7712 23.0534C68.3154 23.3604 67.8275 23.6246 67.3216 23.8389C66.8061 24.0561 66.2665 24.2226 65.7186 24.3349C65.1561 24.4506 64.5777 24.5096 63.9997 24.5096C63.4214 24.5096 62.843 24.4506 62.2813 24.3349C61.7326 24.2226 61.1929 24.0561 60.6779 23.8389C60.1721 23.6246 59.6837 23.3604 59.2278 23.0534C58.7766 22.7475 58.3516 22.3976 57.9661 22.0131C57.5803 21.627 57.2294 21.2035 56.9244 20.752C56.6169 20.2976 56.3518 19.8104 56.1377 19.3048C55.9193 18.7901 55.7522 18.2517 55.6393 17.7033C55.5251 17.1416 55.4668 16.5653 55.4668 15.9882C55.4668 15.4107 55.5251 14.8331 55.6393 14.2726C55.7523 13.7242 55.9193 13.185 56.1377 12.6711C56.3519 12.1652 56.6169 11.6775 56.9244 11.2231C57.2294 10.7713 57.5803 10.3485 57.9661 9.96195C58.3516 9.57746 58.7766 9.2284 59.2279 8.923C59.6837 8.61466 60.1721 8.35047 60.6779 8.13575C61.193 7.9181 61.7326 7.75127 62.2814 7.63977C62.8431 7.52494 63.4214 7.46667 63.9998 7.46667C64.5777 7.46667 65.1561 7.52494 65.7186 7.63977C66.2665 7.7513 66.8061 7.91813 67.3216 8.13575C67.8275 8.35044 68.3154 8.61466 68.7713 8.923C69.2225 9.2284 69.6476 9.57746 70.0338 9.96195C70.4193 10.3485 70.7701 10.7713 71.0747 11.2231C71.3839 11.6775 71.6485 12.1652 71.8618 12.6711C72.0801 13.185 72.2468 13.7242 72.3593 14.2726C72.4747 14.8331 72.5335 15.4107 72.5335 15.9882ZM60.8904 9.40605C58.8582 10.3643 57.3414 12.2342 56.8685 14.4878C57.0606 14.4894 60.0974 14.5277 63.5963 13.5994C62.335 11.3617 60.9875 9.53549 60.8904 9.40605ZM64.2001 14.72C60.4479 15.8417 56.8472 15.761 56.7181 15.756C56.716 15.8342 56.7122 15.9099 56.7122 15.9882C56.7122 17.8576 57.4185 19.5619 58.5794 20.8506C58.5769 20.8468 60.5712 17.3138 64.5039 16.0439C64.5989 16.0123 64.6956 15.984 64.7914 15.9566C64.6085 15.543 64.4089 15.1286 64.2001 14.72ZM68.8125 10.5266C67.5295 9.39689 65.8448 8.71164 63.9997 8.71164C63.4076 8.71164 62.833 8.78321 62.2825 8.91552C62.3917 9.062 63.7605 10.8753 65.0068 13.1604C67.7566 12.131 68.7945 10.5532 68.8125 10.5266ZM65.2882 17.1624C65.2719 17.1677 65.2557 17.1724 65.2398 17.1782C60.9401 18.675 59.536 21.6914 59.5208 21.7244C60.7579 22.6851 62.3097 23.2647 63.9998 23.2647C65.009 23.2647 65.9703 23.0595 66.8449 22.688C66.737 22.0522 66.3136 19.8237 65.2882 17.1624ZM68.072 22.0231C69.7083 20.9205 70.8705 19.1696 71.1946 17.1415C71.0446 17.0933 69.0058 16.4487 66.6536 16.8253C67.6095 19.4484 67.9978 21.5846 68.072 22.0231ZM65.5678 14.2448C65.7369 14.5918 65.9007 14.945 66.0519 15.2999C66.1057 15.4273 66.1582 15.5521 66.2095 15.6769C68.7129 15.3623 71.1793 15.8916 71.2847 15.9132C71.2681 14.1882 70.6501 12.6049 69.6276 11.3654C69.6138 11.3849 68.445 13.0714 65.5678 14.2448Z" fill="white"/>
<path opacity="0.1" fill-rule="evenodd" clip-rule="evenodd" d="M96 16C96 7.16344 103.163 0 112 0C120.837 0 128 7.16344 128 16C128 24.8366 120.837 32 112 32C103.163 32 96 24.8366 96 16Z" fill="white"/>
<path fill-rule="evenodd" clip-rule="evenodd" d="M111.521 13.005L111.554 13.5586L110.995 13.4908C108.958 13.2309 107.178 12.3497 105.668 10.8695L104.929 10.1351L104.739 10.6774C104.336 11.8864 104.593 13.1632 105.433 14.0219C105.88 14.4964 105.779 14.5642 105.007 14.2817C104.739 14.1913 104.504 14.1235 104.481 14.1574C104.403 14.2365 104.672 15.2647 104.884 15.6715C105.175 16.2364 105.768 16.79 106.417 17.1177L106.966 17.3776L106.317 17.3889C105.69 17.3889 105.668 17.4002 105.735 17.6374C105.959 18.3719 106.843 19.1515 107.828 19.4904L108.521 19.7277L107.917 20.0893C107.022 20.609 105.97 20.9028 104.918 20.9254C104.414 20.9367 104 20.9819 104 21.0158C104 21.1287 105.365 21.7615 106.16 22.01C108.544 22.7445 111.375 22.4281 113.502 21.1739C115.013 20.2813 116.523 18.5074 117.229 16.79C117.609 15.8748 117.99 14.2026 117.99 13.4004C117.99 12.8807 118.023 12.8129 118.65 12.1915C119.019 11.8299 119.366 11.4345 119.433 11.3215C119.545 11.1068 119.534 11.1068 118.963 11.2989C118.012 11.6378 117.878 11.5926 118.348 11.0842C118.695 10.7226 119.109 10.0673 119.109 9.87524C119.109 9.84134 118.941 9.89783 118.751 9.99952C118.549 10.1125 118.102 10.282 117.766 10.3837L117.161 10.5758L116.613 10.2029C116.311 9.99952 115.886 9.77355 115.662 9.70576C115.091 9.54758 114.218 9.57017 113.703 9.75095C112.304 10.2594 111.42 11.57 111.521 13.005Z" fill="white"/>
<path opacity="0.1" fill-rule="evenodd" clip-rule="evenodd" d="M144 16C144 7.16344 151.163 0 160 0C168.837 0 176 7.16344 176 16C176 24.8366 168.837 32 160 32C151.163 32 144 24.8366 144 16Z" fill="white"/>
<path fill-rule="evenodd" clip-rule="evenodd" d="M166.668 10.4996C167.402 10.7011 167.981 11.2948 168.177 12.0488C168.533 13.4154 168.533 16.2667 168.533 16.2667C168.533 16.2667 168.533 19.1179 168.177 20.4845C167.981 21.2386 167.402 21.8323 166.668 22.0339C165.337 22.4 160 22.4 160 22.4C160 22.4 154.663 22.4 153.332 22.0339C152.598 21.8323 152.02 21.2386 151.823 20.4845C151.467 19.1179 151.467 16.2667 151.467 16.2667C151.467 16.2667 151.467 13.4154 151.823 12.0488C152.02 11.2948 152.598 10.7011 153.332 10.4996C154.663 10.1334 160 10.1334 160 10.1334C160 10.1334 165.337 10.1334 166.668 10.4996ZM158.4 13.8666V19.2L162.667 16.5334L158.4 13.8666Z" fill="white"/>
</g>
<defs>
<clipPath id="clip0_19_439">
<rect width="176" height="32" fill="white"/>
</clipPath>
</defs>
</svg>
